<svg width="24" height="24" viewBox="0 0 24 24" fill="none" xmlns="http://www.w3.org/2000/svg">
<g clip-path="url(#clip0_309_263)">
<path d="M12.0743 24H0.999999C0.447714 24 0 23.5523 0 23V20.662C0 20.1097 0.447715 19.662 1 19.662H12.0743C16.2759 19.662 19.6923 16.2249 19.6923 11.9979C19.6923 7.77086 16.2759 4.33375 12.0743 4.33375H5.46244C4.90939 4.33375 4.46136 4.78266 4.46244 5.33571L4.4755 12.0117C4.47658 12.5633 4.92398 13.0098 5.4755 13.0098H12.104C12.643 13.0098 13.0759 12.57 13.0759 12.032C13.0759 11.4898 12.6387 11.0543 12.104 11.0543H7.63767C7.08538 11.0543 6.63767 10.6065 6.63767 10.0543V7.71624C6.63767 7.16396 7.08538 6.71624 7.63767 6.71624H12.0997C15.0154 6.71624 17.3836 9.10301 17.3836 12.032C17.3836 14.961 15.0111 17.3478 12.0997 17.3478H1.17205C0.62053 17.3478 0.173131 16.9013 0.172052 16.3498L0.142014 1.00196C0.140932 0.448908 0.588963 0 1.14201 0H12.0743C18.6525 0 24.0042 5.3841 24.0042 12.0021C24 18.6159 18.6525 24 12.0743 24Z" fill="#06B6D4"/>
</g>
<defs>
<clipPath id="clip0_309_263">
<rect width="24" height="24" fill="white"/>
</clipPath>
</defs>
</svg>
